<svg width="48" height="48" viewBox="0 0 48 48" fill="none" xmlns="http://www.w3.org/2000/svg">
<g id="Linear / Money / Card Recive">
<path id="Vector" d="M38 28V40M38 40L42 36M38 40L34 36" stroke="#F41C5D" stroke-width="2" stroke-linecap="round" stroke-linejoin="round"/>
<path id="Vector_2" d="M44 24C44 16.4575 44 12.6863 41.6569 10.3431C39.3137 8 35.5425 8 28 8H20C12.4575 8 8.68629 8 6.34315 10.3431C4 12.6863 4 16.4575 4 24C4 31.5425 4 35.3137 6.34315 37.6569C8.68629 40 12.4575 40 20 40H28" stroke="#F41C5D" stroke-width="2" stroke-linecap="round"/>
<path id="Vector_3" d="M20 32H12" stroke="#F41C5D" stroke-width="2" stroke-linecap="round"/>
<path id="Vector_4" d="M26 32H25" stroke="#F41C5D" stroke-width="2" stroke-linecap="round"/>
<path id="Vector_5" d="M4 20L44 20" stroke="#F41C5D" stroke-width="2" stroke-linecap="round"/>
</g>
</svg>
