<svg width="48" height="49" viewBox="0 0 48 49" fill="none" xmlns="http://www.w3.org/2000/svg">
<g id="Linear / Money / Banknote 3">
<path id="Vector" d="M4 22.5C4 16.8431 4 14.0147 5.75736 12.2574C7.51472 10.5 10.3431 10.5 16 10.5H26C31.6569 10.5 34.4853 10.5 36.2426 12.2574C38 14.0147 38 16.8431 38 22.5C38 28.1569 38 30.9853 36.2426 32.7426C34.4853 34.5 31.6569 34.5 26 34.5H16C10.3431 34.5 7.51472 34.5 5.75736 32.7426C4 30.9853 4 28.1569 4 22.5Z" stroke="#25319E" stroke-width="2"/>
<path id="Vector_2" d="M38.0001 16.6523C39.9503 16.8442 41.263 17.2777 42.2428 18.2575C44.0001 20.0148 44.0001 22.8433 44.0001 28.5001C44.0001 34.157 44.0001 36.9854 42.2428 38.7427C40.4854 40.5001 37.657 40.5001 32.0001 40.5001H22.0001C16.3433 40.5001 13.5148 40.5001 11.7575 38.7427C10.7777 37.763 10.3442 36.4502 10.1523 34.5" stroke="#25319E" stroke-width="2"/>
<path id="Vector_3" d="M26 22.5C26 25.2614 23.7614 27.5 21 27.5C18.2386 27.5 16 25.2614 16 22.5C16 19.7386 18.2386 17.5 21 17.5C23.7614 17.5 26 19.7386 26 22.5Z" stroke="#25319E" stroke-width="2"/>
<path id="Vector_4" d="M32 26.5L32 18.5" stroke="#25319E" stroke-width="2" stroke-linecap="round"/>
<path id="Vector_5" d="M10 26.5L10 18.5" stroke="#25319E" stroke-width="2" stroke-linecap="round"/>
</g>
</svg>
