<svg width="48" height="48" viewBox="0 0 48 48" fill="none" xmlns="http://www.w3.org/2000/svg">
<g id="Linear / Money / Bill List">
<path id="Vector" d="M33.51 4H14.49C12.1723 4 11.0134 4 10.0788 4.32521C8.30644 4.94191 6.91496 6.37438 6.31591 8.19892C6 9.16109 6 10.3541 6 12.7401V40.7484C6 42.4649 7.96999 43.3756 9.21619 42.2352C9.94835 41.5652 11.0517 41.5652 11.7838 42.2352L12.75 43.1194C14.0332 44.2935 15.9668 44.2935 17.25 43.1194C18.5332 41.9452 20.4668 41.9452 21.75 43.1194C23.0332 44.2935 24.9668 44.2935 26.25 43.1194C27.5332 41.9452 29.4668 41.9452 30.75 43.1194C32.0332 44.2935 33.9668 44.2935 35.25 43.1194L36.2162 42.2352C36.9483 41.5652 38.0517 41.5652 38.7838 42.2352C40.03 43.3756 42 42.4649 42 40.7484V12.7401C42 10.3541 42 9.16109 41.6841 8.19892C41.085 6.37438 39.6936 4.94191 37.9212 4.32521C36.9866 4 35.8277 4 33.51 4Z" stroke="#F41C5D" stroke-width="2"/>
<path id="Vector_2" d="M21 22H34" stroke="#F41C5D" stroke-width="2" stroke-linecap="round"/>
<path id="Vector_3" d="M14 22H15" stroke="#F41C5D" stroke-width="2" stroke-linecap="round"/>
<path id="Vector_4" d="M14 15H15" stroke="#F41C5D" stroke-width="2" stroke-linecap="round"/>
<path id="Vector_5" d="M14 29H15" stroke="#F41C5D" stroke-width="2" stroke-linecap="round"/>
<path id="Vector_6" d="M21 15H34" stroke="#F41C5D" stroke-width="2" stroke-linecap="round"/>
<path id="Vector_7" d="M21 29H34" stroke="#F41C5D" stroke-width="2" stroke-linecap="round"/>
</g>
</svg>
