<svg width="48" height="49" viewBox="0 0 48 49" fill="none" xmlns="http://www.w3.org/2000/svg">
<g id="Linear / Time / Calendar Mark">
<path id="Vector" d="M4 24.5C4 16.9575 4 13.1863 6.34315 10.8431C8.68629 8.5 12.4575 8.5 20 8.5H28C35.5425 8.5 39.3137 8.5 41.6568 10.8431C44 13.1863 44 16.9575 44 24.5V28.5C44 36.0425 44 39.8137 41.6568 42.1569C39.3137 44.5 35.5425 44.5 28 44.5H20C12.4575 44.5 8.68629 44.5 6.34315 42.1569C4 39.8137 4 36.0425 4 28.5V24.5Z" stroke="#25319E" stroke-width="2"/>
<path id="Vector_2" d="M14 8.5V5.5" stroke="#25319E" stroke-width="2" stroke-linecap="round"/>
<path id="Vector_3" d="M34 8.5V5.5" stroke="#25319E" stroke-width="2" stroke-linecap="round"/>
<circle id="Vector_4" cx="33" cy="33.5" r="3" stroke="#25319E" stroke-width="2"/>
<path id="Vector_5" d="M5 18.5H43" stroke="#25319E" stroke-width="2" stroke-linecap="round"/>
</g>
</svg>
