<svg width="32" height="32" viewBox="0 0 32 32" fill="none" xmlns="http://www.w3.org/2000/svg">
<g id="Bold Duotone / Essentional, UI / Check Circle">
<path id="Vector" d="M29.3337 15.9993C29.3337 23.3631 23.3641 29.3327 16.0003 29.3327C8.63653 29.3327 2.66699 23.3631 2.66699 15.9993C2.66699 8.63555 8.63653 2.66602 16.0003 2.66602C23.3641 2.66602 29.3337 8.63555 29.3337 15.9993Z" fill="#25319E"/>
<path id="Vector_2" d="M21.3734 11.9589C21.764 12.3494 21.764 12.9826 21.3734 13.3731L14.7068 20.0398C14.3163 20.4303 13.6831 20.4303 13.2926 20.0398L10.6259 17.3731C10.2354 16.9826 10.2354 16.3494 10.6259 15.9589C11.0164 15.5684 11.6496 15.5684 12.0401 15.9589L13.9997 17.9185L16.9795 14.9387L19.9592 11.9589C20.3498 11.5684 20.9829 11.5684 21.3734 11.9589Z" fill="#F6F8FE"/>
</g>
</svg>
