<svg width="128" height="45" viewBox="0 0 128 45" fill="none" xmlns="http://www.w3.org/2000/svg">
<g id="Frame 30">
<path id="Vector" d="M60.8166 13.1148C60.8166 12.0044 60.5686 11.1193 60.0728 10.4595C59.5771 9.7836 58.8412 9.44565 57.8656 9.44565C57.5456 9.44565 57.2499 9.46173 56.9779 9.49393C56.7059 9.51001 56.4822 9.53415 56.3062 9.56634V16.0598C56.5302 16.2047 56.8181 16.3254 57.1699 16.4219C57.5378 16.5185 57.9055 16.5668 58.2735 16.5668C59.9688 16.5668 60.8166 15.4161 60.8166 13.1148ZM64.4633 13.0183C64.4633 13.9999 64.3433 14.8931 64.1034 15.6978C63.8635 16.5024 63.5117 17.1944 63.0478 17.7737C62.5838 18.3531 62.008 18.8037 61.3204 19.1255C60.6327 19.4474 59.841 19.6083 58.9452 19.6083C58.4495 19.6083 57.9856 19.5601 57.5537 19.4635C57.1219 19.3669 56.7059 19.2302 56.3062 19.0531V23.8327H52.7314V7.10413C53.0514 7.00757 53.4191 6.91907 53.8351 6.83859C54.251 6.74203 54.6828 6.66156 55.1306 6.5972C55.5945 6.53284 56.0582 6.48456 56.5221 6.45236C57.0019 6.40408 57.4578 6.37994 57.8896 6.37994C58.9293 6.37994 59.8569 6.54086 60.6726 6.86273C61.4883 7.16849 62.176 7.61105 62.7359 8.1904C63.2958 8.75366 63.7195 9.44565 64.0074 10.2664C64.3112 11.0871 64.4633 12.0044 64.4633 13.0183ZM71.3131 16.8564C71.6652 16.8564 72.001 16.8484 72.3207 16.8323C72.6407 16.8162 72.8965 16.7921 73.0885 16.7599V14.0321C72.9445 13.9999 72.7286 13.9678 72.4407 13.9356C72.1528 13.9034 71.8889 13.8873 71.649 13.8873C71.3131 13.8873 70.9934 13.9114 70.6893 13.9597C70.4014 13.9919 70.1456 14.0643 69.9216 14.177C69.6979 14.2896 69.5218 14.4425 69.3938 14.6356C69.266 14.8287 69.2019 15.0701 69.2019 15.3598C69.2019 15.9231 69.386 16.3173 69.7537 16.5426C70.1375 16.7518 70.6575 16.8564 71.3131 16.8564ZM71.0252 6.33166C72.0808 6.33166 72.9607 6.45236 73.6643 6.69376C74.3681 6.93515 74.928 7.28116 75.3437 7.73175C75.7755 8.18234 76.0796 8.72952 76.2553 9.37323C76.4314 10.0169 76.5192 10.7331 76.5192 11.5216V19.0048C76.0076 19.1175 75.2957 19.2462 74.384 19.3911C73.4723 19.552 72.3687 19.6325 71.0732 19.6325C70.2575 19.6325 69.5137 19.5601 68.842 19.4152C68.1864 19.2704 67.6184 19.037 67.1386 18.7152C66.6588 18.3772 66.2911 17.9427 66.035 17.4116C65.7792 16.8806 65.6511 16.2288 65.6511 15.4564C65.6511 14.7161 65.7951 14.0885 66.083 13.5735C66.387 13.0585 66.7868 12.6481 67.2825 12.3424C67.7785 12.0366 68.3462 11.8194 68.9859 11.6906C69.6259 11.5458 70.2896 11.4734 70.9772 11.4734C71.4411 11.4734 71.849 11.4975 72.2008 11.5458C72.5687 11.578 72.8647 11.6262 73.0885 11.6906V11.3527C73.0885 10.7411 72.9046 10.2503 72.5367 9.88016C72.169 9.51001 71.529 9.32495 70.6173 9.32495C70.0098 9.32495 69.41 9.37323 68.818 9.46979C68.2263 9.55026 67.7144 9.67096 67.2825 9.83188L66.8267 6.93515C67.0348 6.87079 67.2906 6.8064 67.5944 6.74203C67.9144 6.66156 68.2584 6.5972 68.6261 6.54892C68.994 6.48456 69.3779 6.43628 69.7776 6.40408C70.1936 6.3558 70.6095 6.33166 71.0252 6.33166ZM89.9316 6.66962C89.2118 9.11575 88.46 11.409 87.6764 13.5493C86.8925 15.6897 86.0369 17.7657 85.1093 19.7773C84.7734 20.5015 84.4375 21.113 84.1017 21.6119C83.7658 22.1269 83.3978 22.5453 82.9981 22.8672C82.598 23.2051 82.1422 23.4465 81.6305 23.5913C81.1345 23.7523 80.5509 23.8327 79.8792 23.8327C79.3193 23.8327 78.7995 23.7764 78.3197 23.6638C77.8558 23.5672 77.4719 23.4546 77.1681 23.3258L77.7919 20.4532C78.1596 20.582 78.4877 20.6705 78.7756 20.7187C79.0635 20.767 79.3673 20.7912 79.6872 20.7912C80.3269 20.7912 80.8148 20.6141 81.1507 20.2601C81.5025 19.9221 81.7985 19.4474 82.0384 18.8359C81.2227 17.2266 80.407 15.4242 79.5913 13.4286C78.7756 11.417 78.0078 9.16403 77.2881 6.66962H81.0787C81.2386 7.29724 81.4224 7.9812 81.6305 8.72146C81.8543 9.44565 82.0864 10.1859 82.3263 10.9423C82.5662 11.6826 82.8061 12.4067 83.046 13.1148C83.3019 13.8229 83.5418 14.4666 83.7658 15.046C83.9736 14.4666 84.1895 13.8229 84.4136 13.1148C84.6373 12.4067 84.8532 11.6826 85.0613 10.9423C85.2851 10.1859 85.4932 9.44565 85.6851 8.72146C85.8929 7.9812 86.0768 7.29724 86.2369 6.66962H89.9316ZM93.8469 12.9217C93.8469 14.0321 94.0949 14.9253 94.5907 15.6012C95.0867 16.2771 95.8223 16.615 96.7979 16.615C97.1179 16.615 97.4138 16.607 97.6856 16.5909C97.9576 16.5587 98.1816 16.5265 98.3573 16.4944V9.95257C98.1336 9.80774 97.8376 9.68704 97.4696 9.59048C97.1179 9.49393 96.758 9.44565 96.39 9.44565C94.6947 9.44565 93.8469 10.6043 93.8469 12.9217ZM101.932 18.9566C101.612 19.0531 101.244 19.1497 100.828 19.2462C100.413 19.3267 99.9728 19.3991 99.5089 19.4635C99.0612 19.5279 98.5972 19.5761 98.1174 19.6083C97.6538 19.6566 97.2057 19.6808 96.7739 19.6808C95.7344 19.6808 94.8066 19.5279 93.9909 19.2221C93.1752 18.9163 92.4875 18.4818 91.9276 17.9186C91.368 17.3392 90.9359 16.6472 90.6321 15.8426C90.3442 15.0218 90.2002 14.1046 90.2002 13.0907C90.2002 12.0608 90.3283 11.1354 90.5841 10.3147C90.8402 9.47784 91.2079 8.76974 91.6877 8.1904C92.1675 7.61105 92.7514 7.16849 93.4391 6.86273C94.1429 6.55697 94.9427 6.40408 95.8382 6.40408C96.3342 6.40408 96.7739 6.45236 97.1577 6.54892C97.5578 6.64548 97.9576 6.78226 98.3573 6.95929V1.21411L101.932 0.634766V18.9566ZM109.382 16.8564C109.734 16.8564 110.07 16.8484 110.39 16.8323C110.709 16.8162 110.965 16.7921 111.157 16.7599V14.0321C111.013 13.9999 110.797 13.9678 110.51 13.9356C110.222 13.9034 109.958 13.8873 109.718 13.8873C109.382 13.8873 109.062 13.9114 108.758 13.9597C108.47 13.9919 108.214 14.0643 107.99 14.177C107.766 14.2896 107.59 14.4425 107.463 14.6356C107.335 14.8287 107.271 15.0701 107.271 15.3598C107.271 15.9231 107.455 16.3173 107.823 16.5426C108.206 16.7518 108.726 16.8564 109.382 16.8564ZM109.094 6.33166C110.15 6.33166 111.029 6.45236 111.733 6.69376C112.437 6.93515 112.997 7.28116 113.413 7.73175C113.844 8.18234 114.148 8.72952 114.324 9.37323C114.5 10.0169 114.588 10.7331 114.588 11.5216V19.0048C114.076 19.1175 113.365 19.2462 112.453 19.3911C111.541 19.552 110.438 19.6325 109.142 19.6325C108.326 19.6325 107.583 19.5601 106.911 19.4152C106.255 19.2704 105.687 19.037 105.207 18.7152C104.728 18.3772 104.36 17.9427 104.104 17.4116C103.848 16.8806 103.72 16.2288 103.72 15.4564C103.72 14.7161 103.864 14.0885 104.152 13.5735C104.456 13.0585 104.855 12.6481 105.351 12.3424C105.847 12.0366 106.415 11.8194 107.055 11.6906C107.694 11.5458 108.358 11.4734 109.046 11.4734C109.51 11.4734 109.918 11.4975 110.27 11.5458C110.637 11.578 110.933 11.6262 111.157 11.6906V11.3527C111.157 10.7411 110.973 10.2503 110.606 9.88016C110.238 9.51001 109.598 9.32495 108.686 9.32495C108.078 9.32495 107.479 9.37323 106.887 9.46979C106.295 9.55026 105.783 9.67096 105.351 9.83188L104.896 6.93515C105.103 6.87079 105.359 6.8064 105.663 6.74203C105.983 6.66156 106.327 6.5972 106.695 6.54892C107.063 6.48456 107.446 6.43628 107.846 6.40408C108.262 6.3558 108.678 6.33166 109.094 6.33166ZM128 6.66962C127.28 9.11575 126.529 11.409 125.745 13.5493C124.961 15.6897 124.105 17.7657 123.178 19.7773C122.842 20.5015 122.506 21.113 122.17 21.6119C121.834 22.1269 121.466 22.5453 121.067 22.8672C120.667 23.2051 120.211 23.4465 119.699 23.5913C119.203 23.7523 118.619 23.8327 117.948 23.8327C117.388 23.8327 116.868 23.7764 116.388 23.6638C115.924 23.5672 115.54 23.4546 115.237 23.3258L115.86 20.4532C116.228 20.582 116.556 20.6705 116.844 20.7187C117.132 20.767 117.436 20.7912 117.756 20.7912C118.395 20.7912 118.883 20.6141 119.219 20.2601C119.571 19.9221 119.867 19.4474 120.107 18.8359C119.291 17.2266 118.476 15.4242 117.66 13.4286C116.844 11.417 116.076 9.16403 115.357 6.66962H119.147C119.307 7.29724 119.491 7.9812 119.699 8.72146C119.923 9.44565 120.155 10.1859 120.395 10.9423C120.635 11.6826 120.875 12.4067 121.115 13.1148C121.37 13.8229 121.61 14.4666 121.834 15.046C122.042 14.4666 122.258 13.8229 122.482 13.1148C122.706 12.4067 122.922 11.6826 123.13 10.9423C123.354 10.1859 123.562 9.44565 123.754 8.72146C123.961 7.9812 124.146 7.29724 124.305 6.66962H128Z" fill="white"/>
<path id="Vector_2" d="M55.7776 33.412C55.7776 34.5224 56.0256 35.4155 56.5213 36.0914C57.017 36.7673 57.753 37.1053 58.7285 37.1053C59.0485 37.1053 59.3442 37.0971 59.6162 37.0811C59.8882 37.0489 60.1119 37.0169 60.288 36.9846V30.4428C60.0639 30.298 59.7682 30.1773 59.4003 30.0807C59.0485 29.9842 58.6886 29.9359 58.3207 29.9359C56.6254 29.9359 55.7776 31.0946 55.7776 33.412ZM63.8627 39.4468C63.5427 39.5434 63.175 39.6399 62.7591 39.7365C62.3431 39.817 61.9035 39.8894 61.4395 39.9537C60.9918 40.018 60.5279 40.0663 60.048 40.0986C59.5841 40.1468 59.1364 40.171 58.7045 40.171C57.6648 40.171 56.7372 40.018 55.9215 39.7123C55.1058 39.4067 54.4181 38.9722 53.8582 38.4088C53.2984 37.8295 52.8665 37.1376 52.5627 36.3328C52.2748 35.5121 52.1309 34.5948 52.1309 33.5809C52.1309 32.5511 52.2589 31.6256 52.5147 30.8049C52.7705 29.9682 53.1385 29.26 53.6183 28.6806C54.0982 28.1013 54.682 27.6587 55.3697 27.353C56.0735 27.0472 56.8731 26.8943 57.7689 26.8943C58.2646 26.8943 58.7045 26.9426 59.0884 27.0392C59.4881 27.1357 59.8882 27.2725 60.288 27.4495V21.7043L63.8627 21.125V39.4468ZM65.8902 33.6051C65.8902 32.4787 66.0582 31.4968 66.3941 30.6601C66.7461 29.807 67.202 29.0991 67.7616 28.5358C68.3215 27.9725 68.9611 27.5461 69.6809 27.2564C70.4168 26.9667 71.1684 26.8219 71.9361 26.8219C73.7276 26.8219 75.1431 27.3771 76.1826 28.4875C77.2223 29.5819 77.742 31.1993 77.742 33.3395C77.742 33.5486 77.7342 33.7822 77.718 34.0396C77.7021 34.281 77.6862 34.4982 77.67 34.6913H69.5609C69.641 35.4315 69.985 36.019 70.5926 36.4535C71.2004 36.888 72.0161 37.1053 73.0397 37.1053C73.6956 37.1053 74.3352 37.0489 74.959 36.9363C75.599 36.8075 76.1187 36.6548 76.5185 36.4777L76.9983 39.3985C76.8063 39.4951 76.5505 39.5916 76.2306 39.6882C75.9109 39.7848 75.551 39.8653 75.1509 39.9296C74.7671 40.0101 74.3514 40.0744 73.9034 40.1227C73.4556 40.171 73.0079 40.1951 72.5599 40.1951C71.4245 40.1951 70.4327 40.0261 69.5849 39.6882C68.7533 39.3502 68.0576 38.8916 67.4977 38.3122C66.9539 37.7169 66.5461 37.0169 66.2741 36.2121C66.0183 35.4074 65.8902 34.5384 65.8902 33.6051ZM74.2872 32.2291C74.2713 31.9234 74.2153 31.6256 74.1193 31.336C74.0395 31.0463 73.9034 30.7889 73.7114 30.5635C73.5357 30.3381 73.3036 30.1531 73.0157 30.0083C72.744 29.8635 72.4 29.791 71.9841 29.791C71.5843 29.791 71.2403 29.8635 70.9524 30.0083C70.6645 30.1371 70.4246 30.314 70.2327 30.5394C70.0408 30.7648 69.889 31.0303 69.7768 31.336C69.6809 31.6256 69.6089 31.9234 69.5609 32.2291H74.2872ZM87.8661 33.6051C87.8661 32.4947 87.6181 31.6096 87.1224 30.9497C86.6267 30.2738 85.8907 29.9359 84.9152 29.9359C84.5952 29.9359 84.2995 29.9519 84.0275 29.9842C83.7555 30.0002 83.5318 30.0243 83.3557 30.0566V36.5501C83.5798 36.6949 83.8676 36.8156 84.2194 36.9122C84.5874 37.0087 84.9551 37.057 85.323 37.057C87.0183 37.057 87.8661 35.9064 87.8661 33.6051ZM91.5128 33.5085C91.5128 34.4901 91.3929 35.3832 91.153 36.188C90.913 36.9927 90.5613 37.6846 90.0973 38.264C89.6334 38.8433 89.0576 39.2938 88.37 39.6158C87.6823 39.9377 86.8906 40.0986 85.9948 40.0986C85.4991 40.0986 85.0351 40.0503 84.6033 39.9537C84.1714 39.8572 83.7555 39.7205 83.3557 39.5434V44.323H79.781V27.5944C80.101 27.4978 80.4687 27.4093 80.8846 27.3288C81.3006 27.2323 81.7324 27.1518 82.1802 27.0874C82.6441 27.0231 83.1077 26.9748 83.5717 26.9426C84.0515 26.8943 84.5073 26.8702 84.9392 26.8702C85.9789 26.8702 86.9065 27.0311 87.7222 27.353C88.5379 27.6587 89.2255 28.1013 89.7854 28.6806C90.3453 29.244 90.7691 29.9359 91.057 30.7566C91.3608 31.5774 91.5128 32.4947 91.5128 33.5085ZM105.344 33.4844C105.344 34.4822 105.2 35.3995 104.912 36.2363C104.624 37.057 104.209 37.7652 103.665 38.3605C103.121 38.9399 102.465 39.3904 101.697 39.7123C100.946 40.0343 100.098 40.1951 99.1544 40.1951C98.2268 40.1951 97.379 40.0343 96.6113 39.7123C95.8597 39.3904 95.212 38.9399 94.668 38.3605C94.1243 37.7652 93.7005 37.057 93.3964 36.2363C93.0926 35.3995 92.9406 34.4822 92.9406 33.4844C92.9406 32.4865 93.0926 31.5774 93.3964 30.7566C93.7164 29.9359 94.1483 29.2358 94.692 28.6565C95.2519 28.0771 95.9077 27.6266 96.6593 27.3047C97.427 26.9828 98.2589 26.8219 99.1544 26.8219C100.066 26.8219 100.898 26.9828 101.649 27.3047C102.417 27.6266 103.073 28.0771 103.617 28.6565C104.161 29.2358 104.585 29.9359 104.888 30.7566C105.192 31.5774 105.344 32.4865 105.344 33.4844ZM101.697 33.4844C101.697 32.374 101.474 31.5049 101.026 30.8773C100.594 30.2337 99.9701 29.9117 99.1544 29.9117C98.3387 29.9117 97.7071 30.2337 97.2591 30.8773C96.8113 31.5049 96.5873 32.374 96.5873 33.4844C96.5873 34.5948 96.8113 35.4798 97.2591 36.1397C97.7071 36.7833 98.3387 37.1053 99.1544 37.1053C99.9701 37.1053 100.594 36.7833 101.026 36.1397C101.474 35.4798 101.697 34.5948 101.697 33.4844ZM107.274 23.9976L110.849 23.4182V27.1598H115.143V30.1531H110.849V34.6189C110.849 35.3754 110.976 35.9789 111.232 36.4294C111.504 36.8799 112.04 37.1053 112.84 37.1053C113.224 37.1053 113.615 37.073 114.015 37.0087C114.431 36.9282 114.807 36.8237 115.143 36.6949L115.647 39.4951C115.215 39.6722 114.735 39.8249 114.207 39.9537C113.68 40.0826 113.032 40.1468 112.264 40.1468C111.288 40.1468 110.481 40.018 109.841 39.7606C109.201 39.4869 108.689 39.117 108.305 38.6502C107.922 38.1674 107.65 37.5881 107.49 36.9122C107.346 36.2363 107.274 35.4879 107.274 34.6672V23.9976Z" fill="white"/>
<path id="Vector_3" d="M42.1246 14.0345C42.1246 21.7856 35.8796 28.0691 28.1761 28.0691H14.2275V4.76849e-07L28.1761 0C35.8796 -2.63354e-07 42.1246 6.28349 42.1246 14.0345Z" fill="white"/>
<path id="Vector_4" d="M0 28.3509C-3.99804e-08 20.5999 6.24497 14.3164 13.9485 14.3164H27.897V42.3855H13.9485C6.24497 42.3855 3.99804e-08 36.1019 0 28.3509Z" fill="white"/>
<path id="Vector_5" d="M27.8971 14.3164H14.2275V28.0703H27.8971V14.3164Z" fill="#25319E"/>
</g>
</svg>
