<svg width="100" height="100" viewBox="0 0 100 100" fill="none" xmlns="http://www.w3.org/2000/svg">
<g id="Linear / Mesages, Conversation /  Letter Opened">
<path id="Vector" d="M74.9997 25.4238C80.4168 25.9567 84.0632 27.1609 86.7848 29.8825C91.6663 34.7641 91.6663 42.6208 91.6663 58.3343C91.6663 74.0478 91.6663 81.9045 86.7848 86.7861C81.9032 91.6676 74.0465 91.6676 58.333 91.6676H41.6663C25.9529 91.6676 18.0961 91.6676 13.2146 86.7861C8.33301 81.9045 8.33301 74.0478 8.33301 58.3343C8.33301 42.6208 8.33301 34.7641 13.2146 29.8825C15.9362 27.1609 19.5825 25.9567 24.9997 25.4238" stroke="#25319E" stroke-width="2"/>
<path id="Vector_2" d="M41.667 25H58.3337" stroke="#25319E" stroke-width="2" stroke-linecap="round"/>
<path id="Vector_3" d="M45.833 37.5H54.1663" stroke="#25319E" stroke-width="2" stroke-linecap="round"/>
<path id="Vector_4" d="M33.9954 49.1635L26.4393 42.8667C25.7315 42.2769 25.3776 41.982 25.1888 41.5789C25 41.1757 25 40.7151 25 39.7938V29.1673C25 19.3464 25 14.4359 28.051 11.385C31.1019 8.33398 36.0124 8.33398 45.8333 8.33398H54.1667C63.9876 8.33398 68.8981 8.33398 71.949 11.385C75 14.4359 75 19.3464 75 29.1673V39.7938C75 40.7151 75 41.1757 74.8112 41.5789C74.6224 41.982 74.2685 42.2769 73.5607 42.8667L66.0046 49.1635C58.3519 55.5407 54.5256 58.7293 50 58.7293C45.4744 58.7293 41.648 55.5407 33.9954 49.1635Z" stroke="#25319E" stroke-width="2" stroke-linecap="round"/>
<path id="Vector_5" d="M25 41.666L33.9954 49.1622C41.648 55.5394 45.4744 58.728 50 58.728C54.5256 58.728 58.3519 55.5394 66.0046 49.1622L75 41.666" stroke="#25319E" stroke-width="2" stroke-linecap="round"/>
</g>
</svg>
