<svg width="28" height="29" viewBox="0 0 28 29" fill="none" xmlns="http://www.w3.org/2000/svg">
<g id="uil:linkedin">
<path id="Vector" d="M22.3509 4.69936H5.64949C5.46175 4.69676 5.27534 4.73096 5.10089 4.79998C4.92645 4.86901 4.7674 4.97152 4.63281 5.10165C4.49823 5.23179 4.39075 5.387 4.31653 5.55842C4.2423 5.72985 4.20277 5.91413 4.2002 6.10074V22.8977C4.20277 23.0843 4.2423 23.2686 4.31653 23.44C4.39075 23.6114 4.49823 23.7667 4.63281 23.8968C4.7674 24.0269 4.92645 24.1294 5.10089 24.1985C5.27534 24.2675 5.46175 24.3017 5.64949 24.2991H22.3509C22.5386 24.3017 22.7251 24.2675 22.8995 24.1985C23.0739 24.1294 23.233 24.0269 23.3676 23.8968C23.5022 23.7667 23.6096 23.6114 23.6839 23.44C23.7581 23.2686 23.7976 23.0843 23.8002 22.8977V6.10074C23.7976 5.91413 23.7581 5.72985 23.6839 5.55842C23.6096 5.387 23.5022 5.23179 23.3676 5.10165C23.233 4.97152 23.0739 4.86901 22.8995 4.79998C22.7251 4.73096 22.5386 4.69676 22.3509 4.69936ZM10.1453 21.1043H7.18752V12.2844H10.1453V21.1043ZM8.66639 11.0497C8.25848 11.0497 7.86728 10.8886 7.57884 10.6019C7.29041 10.3152 7.12836 9.92635 7.12836 9.52089C7.12836 9.11543 7.29041 8.72658 7.57884 8.43988C7.86728 8.15318 8.25848 7.99211 8.66639 7.99211C8.88299 7.96769 9.10234 7.98903 9.31007 8.05471C9.5178 8.1204 9.70923 8.22896 9.87183 8.37329C10.0344 8.51761 10.1645 8.69444 10.2536 8.89221C10.3427 9.08997 10.3887 9.30421 10.3887 9.52089C10.3887 9.73757 10.3427 9.9518 10.2536 10.1496C10.1645 10.3473 10.0344 10.5242 9.87183 10.6685C9.70923 10.8128 9.5178 10.9214 9.31007 10.9871C9.10234 11.0528 8.88299 11.0741 8.66639 11.0497ZM20.8129 21.1043H17.8551V16.371C17.8551 15.1852 17.4312 14.411 16.3565 14.411C16.0239 14.4134 15.7001 14.5171 15.4286 14.7081C15.1572 14.8991 14.9511 15.1682 14.8382 15.4792C14.7611 15.7095 14.7276 15.9521 14.7396 16.1946V21.0945H11.7819V12.2746H14.7396V13.5192C15.0083 13.0558 15.3991 12.674 15.8699 12.415C16.3407 12.156 16.8737 12.0295 17.4115 12.0493C19.3833 12.0493 20.8129 13.3134 20.8129 16.028V21.1043Z" fill="#25319E"/>
</g>
</svg>
