<svg width="40" height="41" viewBox="0 0 40 41" fill="none" xmlns="http://www.w3.org/2000/svg">
<g id="uil:linkedin">
<path id="Vector" d="M31.9296 6.16231H8.07042C7.80222 6.1586 7.53592 6.20745 7.28671 6.30606C7.03751 6.40467 6.81029 6.55111 6.61802 6.73701C6.42576 6.92292 6.27223 7.14465 6.16619 7.38954C6.06014 7.63443 6.00367 7.89769 6 8.16428V32.1599C6.00367 32.4265 6.06014 32.6898 6.16619 32.9347C6.27223 33.1796 6.42576 33.4013 6.61802 33.5872C6.81029 33.7731 7.03751 33.9195 7.28671 34.0182C7.53592 34.1168 7.80222 34.1656 8.07042 34.1619H31.9296C32.1978 34.1656 32.4641 34.1168 32.7133 34.0182C32.9625 33.9195 33.1897 33.7731 33.382 33.5872C33.5742 33.4013 33.7278 33.1796 33.8338 32.9347C33.9399 32.6898 33.9963 32.4265 34 32.1599V8.16428C33.9963 7.89769 33.9399 7.63443 33.8338 7.38954C33.7278 7.14465 33.5742 6.92292 33.382 6.73701C33.1897 6.55111 32.9625 6.40467 32.7133 6.30606C32.4641 6.20745 32.1978 6.1586 31.9296 6.16231ZM14.493 29.598H10.2676V16.9982H14.493V29.598ZM12.3803 15.2342C11.7976 15.2342 11.2387 15.0041 10.8266 14.5945C10.4146 14.1849 10.1831 13.6294 10.1831 13.0502C10.1831 12.471 10.4146 11.9155 10.8266 11.5059C11.2387 11.0963 11.7976 10.8662 12.3803 10.8662C12.6897 10.8314 13.0031 10.8618 13.2998 10.9557C13.5966 11.0495 13.8701 11.2046 14.1023 11.4108C14.3346 11.617 14.5205 11.8696 14.6477 12.1521C14.775 12.4346 14.8407 12.7407 14.8407 13.0502C14.8407 13.3597 14.775 13.6658 14.6477 13.9483C14.5205 14.2308 14.3346 14.4835 14.1023 14.6896C13.8701 14.8958 13.5966 15.0509 13.2998 15.1447C13.0031 15.2386 12.6897 15.2691 12.3803 15.2342ZM29.7324 29.598H25.507V22.8361C25.507 21.1421 24.9014 20.0361 23.3662 20.0361C22.8911 20.0396 22.4284 20.1877 22.0406 20.4605C21.6528 20.7334 21.3584 21.1178 21.1972 21.5621C21.087 21.8911 21.0392 22.2377 21.0563 22.5841V29.584H16.831V16.9842H21.0563V18.7621C21.4402 18.1001 21.9985 17.5547 22.671 17.1846C23.3436 16.8146 24.105 16.634 24.8732 16.6622C27.6901 16.6622 29.7324 18.4681 29.7324 22.3461V29.598Z" fill="#D7FCEB"/>
</g>
</svg>
