<svg width="85" height="30" viewBox="0 0 85 30" fill="none" xmlns="http://www.w3.org/2000/svg">
<path d="M40.3856 8.99265C40.3856 8.25527 40.221 7.6675 39.8918 7.22934C39.5626 6.7805 39.0739 6.55607 38.426 6.55607C38.2135 6.55607 38.0172 6.56675 37.8365 6.58813C37.6559 6.59881 37.5073 6.61484 37.3905 6.63622V10.9483C37.5392 11.0445 37.7304 11.1247 37.964 11.1888C38.2083 11.2529 38.4525 11.285 38.6969 11.285C39.8227 11.285 40.3856 10.5209 40.3856 8.99265ZM42.8073 8.92853C42.8073 9.58042 42.7276 10.1735 42.5683 10.7079C42.409 11.2422 42.1754 11.7017 41.8673 12.0865C41.5592 12.4712 41.1769 12.7704 40.7202 12.9842C40.2636 13.1979 39.7378 13.3048 39.143 13.3048C38.8138 13.3048 38.5057 13.2727 38.2189 13.2086C37.9321 13.1445 37.6559 13.0536 37.3905 12.9361V16.11H35.0166V5.00115C35.2291 4.93703 35.4733 4.87826 35.7495 4.82482C36.0257 4.7607 36.3125 4.70726 36.6098 4.66452C36.9179 4.62178 37.2258 4.58972 37.5338 4.56834C37.8525 4.53628 38.1552 4.52025 38.442 4.52025C39.1324 4.52025 39.7484 4.62711 40.2901 4.84085C40.8317 5.04389 41.2884 5.33778 41.6602 5.72251C42.032 6.09655 42.3134 6.55607 42.5046 7.1011C42.7063 7.64612 42.8073 8.25527 42.8073 8.92853ZM47.356 11.4773C47.5898 11.4773 47.8129 11.472 48.0252 11.4613C48.2376 11.4506 48.4075 11.4346 48.535 11.4132V9.6018C48.4394 9.58042 48.296 9.55906 48.1048 9.53768C47.9136 9.5163 47.7384 9.50562 47.5791 9.50562C47.356 9.50562 47.1437 9.52165 46.9418 9.55371C46.7506 9.57509 46.5807 9.62318 46.432 9.69798C46.2834 9.77278 46.1665 9.87431 46.0815 10.0026C45.9966 10.1308 45.954 10.2911 45.954 10.4835C45.954 10.8575 46.0763 11.1193 46.3204 11.2689C46.5754 11.4079 46.9207 11.4773 47.356 11.4773ZM47.1648 4.48819C47.8658 4.48819 48.4501 4.56834 48.9173 4.72864C49.3847 4.88894 49.7565 5.11871 50.0326 5.41793C50.3194 5.71716 50.5213 6.08052 50.638 6.50798C50.7549 6.93545 50.8132 7.41102 50.8132 7.93466V12.904C50.4735 12.9788 50.0007 13.0643 49.3953 13.1605C48.7899 13.2673 48.057 13.3208 47.1967 13.3208C46.655 13.3208 46.1611 13.2727 45.715 13.1765C45.2797 13.0803 44.9025 12.9254 44.5839 12.7116C44.2652 12.4872 44.0211 12.1987 43.851 11.846C43.6811 11.4934 43.5961 11.0605 43.5961 10.5476C43.5961 10.056 43.6917 9.63921 43.8829 9.29723C44.0848 8.95524 44.3503 8.68273 44.6795 8.47969C45.0088 8.27665 45.3858 8.13238 45.8106 8.04687C46.2356 7.95069 46.6763 7.9026 47.133 7.9026C47.4411 7.9026 47.7119 7.91863 47.9455 7.95069C48.1899 7.97207 48.3864 8.00413 48.535 8.04687V7.82245C48.535 7.41635 48.4129 7.09042 48.1686 6.84462C47.9244 6.59881 47.4994 6.47592 46.894 6.47592C46.4905 6.47592 46.0922 6.50798 45.6991 6.5721C45.3062 6.62554 44.9662 6.70569 44.6795 6.81256L44.3768 4.88894C44.515 4.8462 44.6848 4.80344 44.8866 4.7607C45.0991 4.70726 45.3275 4.66452 45.5717 4.63246C45.816 4.58972 46.0709 4.55766 46.3364 4.53628C46.6126 4.50422 46.8888 4.48819 47.1648 4.48819ZM59.7199 4.71261C59.2419 6.337 58.7427 7.85986 58.2223 9.28119C57.7017 10.7025 57.1336 12.0811 56.5176 13.417C56.2945 13.8979 56.0715 14.304 55.8485 14.6353C55.6254 14.9772 55.3811 15.2551 55.1156 15.4688C54.8499 15.6932 54.5472 15.8535 54.2075 15.9497C53.8781 16.0566 53.4905 16.11 53.0444 16.11C52.6726 16.11 52.3275 16.0726 52.0089 15.9978C51.7008 15.9337 51.4459 15.8589 51.2441 15.7734L51.6584 13.8658C51.9025 13.9513 52.1204 14.0101 52.3116 14.0421C52.5028 14.0742 52.7045 14.0902 52.917 14.0902C53.3418 14.0902 53.6658 13.9727 53.8888 13.7376C54.1224 13.5131 54.319 13.1979 54.4783 12.7918C53.9366 11.7231 53.3949 10.5262 52.8533 9.20104C52.3116 7.86519 51.8018 6.36906 51.3238 4.71261H53.841C53.9472 5.12939 54.0693 5.58359 54.2075 6.07517C54.356 6.55607 54.5102 7.04766 54.6695 7.54994C54.8288 8.04153 54.9881 8.52243 55.1475 8.99265C55.3173 9.46288 55.4766 9.89034 55.6254 10.2751C55.7634 9.89034 55.9068 9.46288 56.0556 8.99265C56.2041 8.52243 56.3475 8.04153 56.4857 7.54994C56.6343 7.04766 56.7725 6.55607 56.9 6.07517C57.038 5.58359 57.1601 5.12939 57.2664 4.71261H59.7199ZM62.3199 8.86441C62.3199 9.6018 62.4846 10.1949 62.8138 10.6438C63.1432 11.0926 63.6317 11.317 64.2796 11.317C64.492 11.317 64.6886 11.3117 64.869 11.301C65.0497 11.2796 65.1984 11.2582 65.3151 11.2369V6.89271C65.1666 6.79653 64.97 6.71637 64.7257 6.65225C64.4921 6.58813 64.2531 6.55607 64.0087 6.55607C62.8829 6.55607 62.3199 7.32552 62.3199 8.86441ZM67.689 12.8719C67.4767 12.9361 67.2323 13.0002 66.9561 13.0643C66.6801 13.1177 66.3879 13.1658 66.0799 13.2086C65.7825 13.2513 65.4745 13.2834 65.1558 13.3048C64.8479 13.3368 64.5504 13.3528 64.2636 13.3528C63.5734 13.3528 62.9572 13.2513 62.4155 13.0483C61.8739 12.8452 61.4172 12.5567 61.0454 12.1826C60.6738 11.7979 60.3868 11.3384 60.1851 10.8041C59.9939 10.259 59.8983 9.64989 59.8983 8.97662C59.8983 8.29268 59.9833 7.67818 60.1532 7.13316C60.3233 6.57745 60.5674 6.10723 60.8861 5.72251C61.2047 5.33778 61.5925 5.04389 62.0491 4.84085C62.5165 4.63781 63.0476 4.53628 63.6423 4.53628C63.9717 4.53628 64.2636 4.56834 64.5185 4.63246C64.7842 4.69658 65.0497 4.78741 65.3151 4.90497V1.0898L67.689 0.705078V12.8719ZM72.6362 11.4773C72.8698 11.4773 73.0929 11.472 73.3053 11.4613C73.5176 11.4506 73.6877 11.4346 73.8152 11.4132V9.6018C73.7196 9.58042 73.5762 9.55906 73.385 9.53768C73.1938 9.5163 73.0186 9.50562 72.8593 9.50562C72.6362 9.50562 72.4237 9.52165 72.222 9.55371C72.0308 9.57509 71.8607 9.62318 71.7122 9.69798C71.5634 9.77278 71.4465 9.87431 71.3617 10.0026C71.2766 10.1308 71.2342 10.2911 71.2342 10.4835C71.2342 10.8575 71.3563 11.1193 71.6006 11.2689C71.8555 11.4079 72.2007 11.4773 72.6362 11.4773ZM72.445 4.48819C73.146 4.48819 73.7301 4.56834 74.1975 4.72864C74.6647 4.88894 75.0365 5.11871 75.3128 5.41793C75.5995 5.71716 75.8013 6.08052 75.9182 6.50798C76.0349 6.93545 76.0934 7.41102 76.0934 7.93466V12.904C75.7535 12.9788 75.2809 13.0643 74.6755 13.1605C74.0701 13.2673 73.3372 13.3208 72.4769 13.3208C71.9352 13.3208 71.4413 13.2727 70.9952 13.1765C70.5597 13.0803 70.1827 12.9254 69.8641 12.7116C69.5454 12.4872 69.3011 12.1987 69.1312 11.846C68.9611 11.4934 68.8763 11.0605 68.8763 10.5476C68.8763 10.056 68.9719 9.63921 69.1631 9.29723C69.3648 8.95524 69.6303 8.68273 69.9596 8.47969C70.2888 8.27665 70.6658 8.13238 71.0908 8.04687C71.5156 7.95069 71.9563 7.9026 72.4132 7.9026C72.721 7.9026 72.9919 7.91863 73.2257 7.95069C73.4699 7.97207 73.6664 8.00413 73.8152 8.04687V7.82245C73.8152 7.41635 73.6929 7.09042 73.4487 6.84462C73.2044 6.59881 72.7796 6.47592 72.1742 6.47592C71.7705 6.47592 71.3722 6.50798 70.9793 6.5721C70.5862 6.62554 70.2464 6.70569 69.9596 6.81256L69.6569 4.88894C69.795 4.8462 69.9648 4.80344 70.1668 4.7607C70.3791 4.70726 70.6075 4.66452 70.8518 4.63246C71.096 4.58972 71.3509 4.55766 71.6166 4.53628C71.8926 4.50422 72.1688 4.48819 72.445 4.48819ZM84.9999 4.71261C84.5219 6.337 84.0227 7.85986 83.5023 9.28119C82.9819 10.7025 82.4136 12.0811 81.7976 13.417C81.5745 13.8979 81.3515 14.304 81.1284 14.6353C80.9054 14.9772 80.6611 15.2551 80.3956 15.4688C80.1301 15.6932 79.8274 15.8535 79.4875 15.9497C79.1583 16.0566 78.7705 16.11 78.3244 16.11C77.9526 16.11 77.6075 16.0726 77.2889 15.9978C76.9808 15.9337 76.7259 15.8589 76.5241 15.7734L76.9384 13.8658C77.1827 13.9513 77.4004 14.0101 77.5916 14.0421C77.7828 14.0742 77.9845 14.0902 78.197 14.0902C78.6218 14.0902 78.9458 13.9727 79.1688 13.7376C79.4024 13.5131 79.599 13.1979 79.7583 12.7918C79.2166 11.7231 78.6749 10.5262 78.1333 9.20104C77.5916 7.86519 77.0817 6.36906 76.6038 4.71261H79.121C79.2272 5.12939 79.3495 5.58359 79.4875 6.07517C79.6362 6.55607 79.7902 7.04766 79.9495 7.54994C80.1088 8.04153 80.2681 8.52243 80.4274 8.99265C80.5973 9.46288 80.7566 9.89034 80.9054 10.2751C81.0434 9.89034 81.1868 9.46288 81.3356 8.99265C81.4843 8.52243 81.6277 8.04153 81.7657 7.54994C81.9145 7.04766 82.0525 6.55607 82.18 6.07517C82.318 5.58359 82.4402 5.12939 82.5464 4.71261H84.9999Z" fill="#262626"/>
<path d="M37.0401 22.4718C37.0401 23.2092 37.2047 23.8023 37.5339 24.2512C37.8631 24.7 38.3518 24.9244 38.9997 24.9244C39.2122 24.9244 39.4085 24.919 39.5892 24.9084C39.7698 24.887 39.9184 24.8657 40.0352 24.8443V20.5001C39.8865 20.4039 39.6901 20.3238 39.4458 20.2597C39.2122 20.1956 38.9732 20.1635 38.7288 20.1635C37.603 20.1635 37.0401 20.9329 37.0401 22.4718ZM42.4091 26.4794C42.1966 26.5435 41.9524 26.6076 41.6762 26.6717C41.4 26.7252 41.1081 26.7733 40.8 26.816C40.5026 26.8587 40.1946 26.8907 39.8759 26.9122C39.5679 26.9442 39.2705 26.9603 38.9837 26.9603C38.2933 26.9603 37.6773 26.8587 37.1356 26.6557C36.594 26.4527 36.1373 26.1642 35.7655 25.7901C35.3937 25.4053 35.1069 24.9459 34.9052 24.4115C34.714 23.8665 34.6184 23.2573 34.6184 22.584C34.6184 21.9002 34.7034 21.2856 34.8733 20.7406C35.0432 20.1849 35.2875 19.7147 35.6062 19.3299C35.9248 18.9452 36.3126 18.6513 36.7692 18.4483C37.2366 18.2452 37.7675 18.1437 38.3624 18.1437C38.6916 18.1437 38.9837 18.1758 39.2387 18.2399C39.5041 18.304 39.7698 18.3948 40.0352 18.5124V14.6972L42.4091 14.3125V26.4794ZM43.7555 22.6001C43.7555 21.8521 43.867 21.2 44.0901 20.6444C44.3239 20.0779 44.6266 19.6078 44.9982 19.2337C45.37 18.8597 45.7948 18.5765 46.2728 18.3842C46.7615 18.1918 47.2605 18.0956 47.7704 18.0956C48.9601 18.0956 49.9 18.4643 50.5903 19.2017C51.2807 19.9284 51.6259 21.0025 51.6259 22.4237C51.6259 22.5626 51.6207 22.7177 51.6099 22.8886C51.5994 23.0489 51.5888 23.1932 51.5781 23.3214H46.1931C46.2463 23.813 46.4747 24.2031 46.8782 24.4916C47.2818 24.7802 47.8235 24.9244 48.5032 24.9244C48.9388 24.9244 49.3635 24.887 49.7778 24.8122C50.2028 24.7267 50.5479 24.6253 50.8133 24.5077L51.132 26.4473C51.0045 26.5114 50.8347 26.5755 50.6222 26.6397C50.4099 26.7038 50.1709 26.7573 49.9052 26.8C49.6503 26.8535 49.3743 26.8961 49.0768 26.9282C48.7794 26.9603 48.4821 26.9763 48.1846 26.9763C47.4306 26.9763 46.772 26.8641 46.209 26.6397C45.6568 26.4152 45.1948 26.1107 44.823 25.7259C44.4619 25.3306 44.1911 24.8657 44.0104 24.3313C43.8406 23.7969 43.7555 23.2198 43.7555 22.6001ZM49.3317 21.6864C49.3211 21.4834 49.2839 21.2856 49.2202 21.0932C49.1672 20.9009 49.0768 20.73 48.9493 20.5803C48.8326 20.4306 48.6785 20.3078 48.4873 20.2116C48.3069 20.1154 48.0784 20.0673 47.8022 20.0673C47.5368 20.0673 47.3083 20.1154 47.1172 20.2116C46.926 20.2971 46.7666 20.4146 46.6392 20.5642C46.5117 20.7139 46.411 20.8903 46.3365 21.0932C46.2728 21.2856 46.225 21.4834 46.1931 21.6864H49.3317ZM58.3489 22.6001C58.3489 21.8627 58.1842 21.275 57.8551 20.8368C57.5259 20.3879 57.0372 20.1635 56.3893 20.1635C56.1768 20.1635 55.9805 20.1741 55.7998 20.1956C55.6192 20.2062 55.4706 20.2222 55.3537 20.2436V24.5557C55.5025 24.6519 55.6937 24.7321 55.9273 24.7962C56.1716 24.8603 56.4158 24.8924 56.6602 24.8924C57.786 24.8924 58.3489 24.1283 58.3489 22.6001ZM60.7706 22.536C60.7706 23.1878 60.6909 23.7809 60.5316 24.3153C60.3723 24.8497 60.1387 25.3092 59.8306 25.6939C59.5225 26.0786 59.1402 26.3778 58.6835 26.5916C58.2269 26.8054 57.7011 26.9122 57.1063 26.9122C56.7771 26.9122 56.469 26.8801 56.1822 26.816C55.8954 26.7519 55.6192 26.6611 55.3537 26.5435V29.7174H52.9799V18.6086C53.1924 18.5445 53.4366 18.4857 53.7128 18.4322C53.989 18.3681 54.2757 18.3147 54.5731 18.2719C54.8812 18.2292 55.1891 18.1971 55.4971 18.1758C55.8158 18.1437 56.1185 18.1277 56.4053 18.1277C57.0957 18.1277 57.7117 18.2345 58.2533 18.4483C58.795 18.6513 59.2517 18.9452 59.6235 19.3299C59.9953 19.704 60.2767 20.1635 60.4679 20.7085C60.6696 21.2535 60.7706 21.8627 60.7706 22.536ZM69.9555 22.5199C69.9555 23.1826 69.8599 23.7917 69.6687 24.3474C69.4775 24.8924 69.2015 25.3627 68.8403 25.758C68.4792 26.1427 68.0437 26.4419 67.5339 26.6557C67.0348 26.8695 66.4718 26.9763 65.8451 26.9763C65.2291 26.9763 64.6661 26.8695 64.1563 26.6557C63.6572 26.4419 63.2271 26.1427 62.8658 25.758C62.5048 25.3627 62.2233 24.8924 62.0214 24.3474C61.8197 23.7917 61.7187 23.1826 61.7187 22.5199C61.7187 21.8573 61.8197 21.2535 62.0214 20.7085C62.2339 20.1635 62.5207 19.6986 62.8817 19.3139C63.2535 18.9292 63.6891 18.63 64.1882 18.4162C64.698 18.2025 65.2504 18.0956 65.8451 18.0956C66.4505 18.0956 67.0029 18.2025 67.502 18.4162C68.0118 18.63 68.4473 18.9292 68.8084 19.3139C69.1696 19.6986 69.451 20.1635 69.6528 20.7085C69.8547 21.2535 69.9555 21.8573 69.9555 22.5199ZM67.5339 22.5199C67.5339 21.7825 67.3853 21.2055 67.0878 20.7887C66.801 20.3613 66.3868 20.1475 65.8451 20.1475C65.3034 20.1475 64.884 20.3613 64.5865 20.7887C64.2891 21.2055 64.1404 21.7825 64.1404 22.5199C64.1404 23.2573 64.2891 23.845 64.5865 24.2832C64.884 24.7106 65.3034 24.9244 65.8451 24.9244C66.3868 24.9244 66.801 24.7106 67.0878 24.2832C67.3853 23.845 67.5339 23.2573 67.5339 22.5199ZM71.2369 16.2201L73.6108 15.8354V18.32H76.4626V20.3078H73.6108V23.2733C73.6108 23.7757 73.6956 24.1764 73.8657 24.4756C74.0461 24.7748 74.402 24.9244 74.9331 24.9244C75.188 24.9244 75.4481 24.903 75.7138 24.8603C75.9898 24.8068 76.2395 24.7375 76.4626 24.6519L76.7971 26.5114C76.5104 26.629 76.1917 26.7304 75.8412 26.816C75.4907 26.9015 75.0606 26.9442 74.5507 26.9442C73.9027 26.9442 73.3664 26.8587 72.9416 26.6878C72.5166 26.506 72.1769 26.2603 71.922 25.9504C71.6671 25.6298 71.4864 25.245 71.3803 24.7962C71.2847 24.3474 71.2369 23.8504 71.2369 23.3054V16.2201Z" fill="#262626"/>
<path d="M27.9735 9.60304C27.9735 14.7502 23.8264 18.9229 18.7107 18.9229H9.448V0.283203L18.7107 0.283203C23.8264 0.283203 27.9735 4.45584 27.9735 9.60304Z" fill="#25319E"/>
<path d="M0 19.1089C-2.65495e-08 13.9617 4.14707 9.78906 9.26272 9.78906H18.5254V28.4287H9.26272C4.14707 28.4287 2.65495e-08 24.2561 0 19.1089Z" fill="#25319E"/>
<path d="M18.5255 9.78906H9.448V18.9225H18.5255V9.78906Z" fill="#D7FCEB"/>
</svg>
