<svg width="100" height="100" viewBox="0 0 100 100" fill="none" xmlns="http://www.w3.org/2000/svg">
<g id="Linear / Money / Money Bag">
<path id="Vector" d="M8.33301 58.3333C8.33301 42.6198 8.33301 34.7631 13.2146 29.8816C18.0961 25 25.9529 25 41.6663 25H58.333C74.0465 25 81.9032 25 86.7848 29.8816C91.6663 34.7631 91.6663 42.6198 91.6663 58.3333C91.6663 74.0468 91.6663 81.9036 86.7848 86.7851C81.9032 91.6667 74.0465 91.6667 58.333 91.6667H41.6663C25.9529 91.6667 18.0961 91.6667 13.2146 86.7851C8.33301 81.9036 8.33301 74.0468 8.33301 58.3333Z" stroke="#25319E" stroke-width="2"/>
<path id="Vector_2" d="M66.6663 25.0007C66.6663 17.1439 66.6663 13.2155 64.2256 10.7748C61.7848 8.33398 57.8564 8.33398 49.9997 8.33398C42.1429 8.33398 38.2146 8.33398 35.7738 10.7748C33.333 13.2155 33.333 17.1439 33.333 25.0007" stroke="#25319E" stroke-width="2"/>
<path id="Vector_3" d="M50.0003 72.2216C54.6027 72.2216 58.3337 69.1124 58.3337 65.2771C58.3337 61.4418 54.6027 58.3327 50.0003 58.3327C45.398 58.3327 41.667 55.2235 41.667 51.3882C41.667 47.5529 45.398 44.4438 50.0003 44.4438M50.0003 72.2216C45.398 72.2216 41.667 69.1124 41.667 65.2771M50.0003 72.2216V74.9993M50.0003 41.666V44.4438M50.0003 44.4438C54.6027 44.4438 58.3337 47.5529 58.3337 51.3882" stroke="#25319E" stroke-width="2" stroke-linecap="round"/>
</g>
</svg>
