<svg width="100" height="100" viewBox="0 0 100 100" fill="none" xmlns="http://www.w3.org/2000/svg">
<g id="Linear / Notes / Document Add">
<path id="Vector" d="M75.7501 33.4966L77.6811 31.5656C80.8805 28.3662 86.0677 28.3662 89.2671 31.5656C92.4665 34.7649 92.4665 39.9522 89.2671 43.1515L87.3361 45.0825M75.7501 33.4966C75.7501 33.4966 75.9915 37.5999 79.6121 41.2205C83.2328 44.8412 87.3361 45.0825 87.3361 45.0825M75.7501 33.4966L57.9976 51.2491C56.7951 52.4516 56.1939 53.0528 55.6769 53.7157C55.0669 54.4976 54.544 55.3437 54.1174 56.239C53.7557 56.9979 53.4868 57.8045 52.9491 59.4177L51.2274 64.5827L50.6704 66.2537M87.3361 45.0825L69.5835 62.8351C68.3811 64.0376 67.7799 64.6388 67.117 65.1558C66.335 65.7657 65.4889 66.2887 64.5937 66.7153C63.8348 67.077 63.0282 67.3459 61.415 67.8836L56.25 69.6053L54.579 70.1623M54.579 70.1623L52.908 70.7192C52.1141 70.9839 51.2389 70.7773 50.6471 70.1855C50.0554 69.5938 49.8488 68.7186 50.1134 67.9247L50.6704 66.2537M54.579 70.1623L50.6704 66.2537" stroke="#25319E" stroke-width="2"/>
<path id="Vector_2" d="M33.333 54.166H43.7497" stroke="#25319E" stroke-width="2" stroke-linecap="round"/>
<path id="Vector_3" d="M33.333 37.5H60.4163" stroke="#25319E" stroke-width="2" stroke-linecap="round"/>
<path id="Vector_4" d="M33.333 70.834H39.583" stroke="#25319E" stroke-width="2" stroke-linecap="round"/>
<path id="Vector_5" d="M82.6184 13.2155C77.7369 8.33398 69.8801 8.33398 54.1667 8.33398H45.8333C30.1198 8.33398 22.2631 8.33398 17.3816 13.2155C12.5 18.0971 12.5 25.9538 12.5 41.6673V58.334C12.5 74.0475 12.5 81.9042 17.3816 86.7858C22.2631 91.6673 30.1198 91.6673 45.8333 91.6673H54.1667C69.8801 91.6673 77.7369 91.6673 82.6184 86.7858C86.548 82.8562 87.3143 76.9989 87.4638 66.6673" stroke="#25319E" stroke-width="2" stroke-linecap="round"/>
</g>
</svg>
