<svg width="28" height="28" viewBox="0 0 28 28" fill="none" xmlns="http://www.w3.org/2000/svg">
<g id="uil:linkedin">
<path id="Vector" d="M22.3507 4.20015H5.64925C5.46151 4.19756 5.27509 4.23175 5.10065 4.30078C4.92621 4.3698 4.76715 4.47231 4.63257 4.60245C4.49799 4.73258 4.39051 4.88779 4.31628 5.05921C4.24205 5.23064 4.20252 5.41492 4.19995 5.60153V22.3985C4.20252 22.5851 4.24205 22.7694 4.31628 22.9408C4.39051 23.1122 4.49799 23.2674 4.63257 23.3976C4.76715 23.5277 4.92621 23.6302 5.10065 23.6992C5.27509 23.7683 5.46151 23.8025 5.64925 23.7999H22.3507C22.5384 23.8025 22.7248 23.7683 22.8993 23.6992C23.0737 23.6302 23.2327 23.5277 23.3673 23.3976C23.5019 23.2674 23.6094 23.1122 23.6836 22.9408C23.7579 22.7694 23.7974 22.5851 23.8 22.3985V5.60153C23.7974 5.41492 23.7579 5.23064 23.6836 5.05921C23.6094 4.88779 23.5019 4.73258 23.3673 4.60245C23.2327 4.47231 23.0737 4.3698 22.8993 4.30078C22.7248 4.23175 22.5384 4.19756 22.3507 4.20015ZM10.145 20.6051H7.18728V11.7852H10.145V20.6051ZM8.66615 10.5505C8.25824 10.5505 7.86703 10.3894 7.5786 10.1027C7.29016 9.81599 7.12812 9.42714 7.12812 9.02168C7.12812 8.61622 7.29016 8.22737 7.5786 7.94067C7.86703 7.65397 8.25824 7.4929 8.66615 7.4929C8.88275 7.46849 9.1021 7.48982 9.30983 7.55551C9.51756 7.6212 9.70899 7.72976 9.87158 7.87408C10.0342 8.0184 10.1643 8.19524 10.2533 8.393C10.3424 8.59077 10.3885 8.805 10.3885 9.02168C10.3885 9.23836 10.3424 9.4526 10.2533 9.65036C10.1643 9.84812 10.0342 10.025 9.87158 10.1693C9.70899 10.3136 9.51756 10.4222 9.30983 10.4879C9.1021 10.5535 8.88275 10.5749 8.66615 10.5505ZM20.8126 20.6051H17.8549V15.8718C17.8549 14.686 17.4309 13.9118 16.3563 13.9118C16.0237 13.9142 15.6999 14.0179 15.4284 14.2089C15.1569 14.3999 14.9509 14.669 14.838 14.98C14.7608 15.2103 14.7274 15.4529 14.7394 15.6954V20.5953H11.7816V11.7754H14.7394V13.02C15.0081 12.5566 15.3989 12.1748 15.8697 11.9158C16.3405 11.6568 16.8735 11.5303 17.4112 11.55C19.383 11.55 20.8126 12.8142 20.8126 15.5288V20.6051Z" fill="#25319E"/>
</g>
</svg>
