<svg width="28" height="28" viewBox="0 0 28 28" fill="none" xmlns="http://www.w3.org/2000/svg">
<g id="mdi:twitter">
<path id="Vector" d="M23.8 8.19411C23.0785 8.52558 22.3009 8.7434 21.4952 8.84758C22.3196 8.34563 22.9567 7.55011 23.2565 6.59358C22.4789 7.06711 21.617 7.39858 20.7082 7.58799C19.968 6.77352 18.9281 6.29999 17.7476 6.29999C15.5458 6.29999 13.747 8.11834 13.747 10.3629C13.747 10.6849 13.7845 10.9974 13.85 11.291C10.5147 11.1205 7.54469 9.50105 5.56783 7.04816C5.22118 7.64481 5.02443 8.34563 5.02443 9.08434C5.02443 10.4955 5.7271 11.7456 6.81391 12.4559C6.14871 12.4559 5.53035 12.2665 4.98695 11.9823V12.0108C4.98695 13.9806 6.37357 15.6285 8.20989 15.9979C7.62033 16.161 7.00138 16.1837 6.40167 16.0642C6.65614 16.8715 7.15451 17.578 7.82672 18.0842C8.49893 18.5904 9.31117 18.871 10.1493 18.8864C8.72859 20.0233 6.96756 20.6378 5.15559 20.629C4.83704 20.629 4.5185 20.61 4.19995 20.5722C5.98007 21.7276 8.09747 22.4 10.3648 22.4C17.7476 22.4 21.8044 16.2062 21.8044 10.8364C21.8044 10.6565 21.8043 10.486 21.795 10.306C22.582 9.73781 23.2565 9.01805 23.8 8.19411Z" fill="#25319E"/>
</g>
</svg>
