<svg width="29" height="28" viewBox="0 0 29 28" fill="none" xmlns="http://www.w3.org/2000/svg">
<g id="Bold Duotone / Essentional, UI / Question Circle">
<path id="Vector" d="M26.1663 14.0007C26.1663 20.444 20.943 25.6673 14.4997 25.6673C8.05635 25.6673 2.83301 20.444 2.83301 14.0007C2.83301 7.55733 8.05635 2.33398 14.4997 2.33398C20.943 2.33398 26.1663 7.55733 26.1663 14.0007Z" fill="#25319E"/>
<g id="Vector_2">
<path d="M14.5 9.04102C13.7751 9.04102 13.1875 9.62864 13.1875 10.3535C13.1875 10.8368 12.7957 11.2285 12.3125 11.2285C11.8293 11.2285 11.4375 10.8368 11.4375 10.3535C11.4375 8.66214 12.8086 7.29102 14.5 7.29102C16.1914 7.29102 17.5625 8.66214 17.5625 10.3535C17.5625 11.1828 17.2317 11.9367 16.6968 12.4873C16.5892 12.5981 16.4865 12.7007 16.3886 12.7985L16.3885 12.7986C16.1367 13.0502 15.9161 13.2706 15.7226 13.5193C15.467 13.8476 15.375 14.0889 15.375 14.291V15.166C15.375 15.6493 14.9832 16.041 14.5 16.041C14.0168 16.041 13.625 15.6493 13.625 15.166V14.291C13.625 13.5266 13.9808 12.9079 14.3415 12.4444C14.6084 12.1015 14.9438 11.7667 15.2161 11.4951L15.2161 11.495C15.2982 11.4131 15.3746 11.3369 15.4416 11.2679C15.672 11.0307 15.8125 10.7094 15.8125 10.3535C15.8125 9.62864 15.2249 9.04102 14.5 9.04102Z" fill="white"/>
<path d="M14.5 19.8327C15.1443 19.8327 15.6667 19.3103 15.6667 18.666C15.6667 18.0217 15.1443 17.4993 14.5 17.4993C13.8557 17.4993 13.3333 18.0217 13.3333 18.666C13.3333 19.3103 13.8557 19.8327 14.5 19.8327Z" fill="white"/>
</g>
</g>
</svg>
