<svg width="28" height="29" viewBox="0 0 28 29" fill="none" xmlns="http://www.w3.org/2000/svg">
<g id="mdi:twitter">
<path id="Vector" d="M23.8002 8.6949C23.0788 9.02637 22.3012 9.24419 21.4954 9.34837C22.3199 8.84643 22.957 8.0509 23.2568 7.09437C22.4792 7.5679 21.6172 7.89937 20.7084 8.08878C19.9683 7.27431 18.9283 6.80078 17.7478 6.80078C15.5461 6.80078 13.7472 8.61913 13.7472 10.8637C13.7472 11.1857 13.7847 11.4982 13.8503 11.7918C10.5149 11.6213 7.54494 10.0018 5.56807 7.54896C5.22142 8.1456 5.02467 8.84643 5.02467 9.58513C5.02467 10.9963 5.72735 12.2464 6.81415 12.9567C6.14895 12.9567 5.5306 12.7673 4.98719 12.4831V12.5115C4.98719 14.4814 6.37381 16.1293 8.21014 16.4987C7.62057 16.6618 7.00162 16.6844 6.40192 16.565C6.65639 17.3723 7.15475 18.0787 7.82696 18.585C8.49917 19.0912 9.31142 19.3717 10.1495 19.3872C8.72884 20.5241 6.9678 21.1386 5.15584 21.1298C4.83729 21.1298 4.51874 21.1108 4.2002 21.073C5.98031 22.2284 8.09771 22.9008 10.365 22.9008C17.7478 22.9008 21.8046 16.707 21.8046 11.3372C21.8046 11.1573 21.8046 10.9868 21.7952 10.8068C22.5822 10.2386 23.2568 9.51884 23.8002 8.6949Z" fill="#25319E"/>
</g>
</svg>
