<svg width="40" height="41" viewBox="0 0 40 41" fill="none" xmlns="http://www.w3.org/2000/svg">
<g id="mdi:twitter">
<path id="Vector" d="M34 11.868C32.9694 12.3415 31.8585 12.6527 30.7075 12.8015C31.8853 12.0845 32.7954 10.948 33.2237 9.58152C32.1128 10.258 30.8815 10.7315 29.5832 11.0021C28.5258 9.83858 27.0402 9.16211 25.3537 9.16211C22.2084 9.16211 19.6386 11.7598 19.6386 14.9662C19.6386 15.4262 19.6922 15.8727 19.7859 16.2921C15.021 16.0486 10.7782 13.7351 7.95411 10.2309C7.45889 11.0833 7.17782 12.0845 7.17782 13.1398C7.17782 15.1556 8.18164 16.9415 9.73423 17.9562C8.78394 17.9562 7.90057 17.6856 7.12428 17.2798V17.3203C7.12428 20.1345 9.10516 22.4886 11.7285 23.0162C10.8863 23.2492 10.002 23.2816 9.14532 23.1109C9.50884 24.2643 10.2208 25.2735 11.1811 25.9967C12.1414 26.7198 13.3017 27.1206 14.499 27.1427C12.4695 28.7668 9.95372 29.6447 7.3652 29.6321C6.91013 29.6321 6.45507 29.605 6 29.5509C8.54302 31.2015 11.5679 32.1621 14.8069 32.1621C25.3537 32.1621 31.1491 23.3139 31.1491 15.6427C31.1491 15.3856 31.1491 15.1421 31.1358 14.885C32.26 14.0733 33.2237 13.0451 34 11.868Z" fill="#D7FCEB"/>
</g>
</svg>
