<svg width="100" height="100" viewBox="0 0 100 100" fill="none" xmlns="http://www.w3.org/2000/svg">
<g id="Linear / Users / User Id">
<circle id="Vector" cx="37.5003" cy="37.4993" r="8.33333" stroke="#25319E" stroke-width="2"/>
<path id="Vector_2" d="M54.1663 62.4993C54.1663 67.1017 54.1663 70.8327 37.4997 70.8327C20.833 70.8327 20.833 67.1017 20.833 62.4993C20.833 57.897 28.2949 54.166 37.4997 54.166C46.7044 54.166 54.1663 57.897 54.1663 62.4993Z" stroke="#25319E" stroke-width="2"/>
<path id="Vector_3" d="M8.33301 49.9993C8.33301 34.2859 8.33301 26.4291 13.2146 21.5476C18.0961 16.666 25.9529 16.666 41.6663 16.666H58.333C74.0465 16.666 81.9032 16.666 86.7848 21.5476C91.6663 26.4291 91.6663 34.2859 91.6663 49.9993C91.6663 65.7128 91.6663 73.5696 86.7848 78.4511C81.9032 83.3327 74.0465 83.3327 58.333 83.3327H41.6663C25.9529 83.3327 18.0961 83.3327 13.2146 78.4511C8.33301 73.5696 8.33301 65.7128 8.33301 49.9993Z" stroke="#25319E" stroke-width="2"/>
<path id="Vector_4" d="M79.167 50H62.5003" stroke="#25319E" stroke-width="2" stroke-linecap="round"/>
<path id="Vector_5" d="M79.167 37.5H58.3337" stroke="#25319E" stroke-width="2" stroke-linecap="round"/>
<path id="Vector_6" d="M79.167 62.5H66.667" stroke="#25319E" stroke-width="2" stroke-linecap="round"/>
</g>
</svg>
