<svg width="48" height="48" viewBox="0 0 48 48" fill="none" xmlns="http://www.w3.org/2000/svg">
<g id="Linear / Money / Wallet Money">
<path id="Vector" d="M12 20H20" stroke="#25319E" stroke-width="2" stroke-linecap="round" stroke-linejoin="round"/>
<path id="Vector_2" d="M41.6667 22H36.4615C32.8929 22 30 24.6863 30 28C30 31.3137 32.8929 34 36.4615 34H41.6667C41.8333 34 41.9167 34 41.987 33.9957C43.0656 33.9301 43.9247 33.1323 43.9954 32.1308C44 32.0655 44 31.9881 44 31.8333V24.1667C44 24.0119 44 23.9345 43.9954 23.8692C43.9247 22.8677 43.0656 22.0699 41.987 22.0043C41.9167 22 41.8333 22 41.6667 22Z" stroke="#FFFFFF" stroke-width="2"/>
<circle id="Vector_3" cx="36" cy="28" r="2" fill="#25319E"/>
<path id="Vector_4" d="M41.9301 22C41.7746 18.2554 41.2732 15.9595 39.6569 14.3431C37.3137 12 33.5425 12 26 12H20C12.4575 12 8.68629 12 6.34315 14.3431C4 16.6863 4 20.4575 4 28C4 35.5425 4 39.3137 6.34315 41.6569C8.68629 44 12.4575 44 20 44H26C33.5425 44 37.3137 44 39.6569 41.6569C41.2732 40.0405 41.7746 37.7446 41.9301 34" stroke="#FFFFFF" stroke-width="2"/>
<path id="Vector_5" d="M12 12L19.471 7.04627C21.5749 5.65124 24.4251 5.65124 26.529 7.04627L34 12" stroke="#FFFFFF" stroke-width="2" stroke-linecap="round"/>
</g>
</svg>
